<svg width="2372" height="385" viewBox="0 0 2372 385" fill="none" xmlns="http://www.w3.org/2000/svg">
<path d="M184.5 384.5C158.167 384.5 133.667 379.667 111 370C88.6667 360.333 69.1667 347 52.5 330C36.1667 312.667 23.3333 292.333 14 269C4.66667 245.667 1.71363e-06 220 1.71363e-06 192C1.71363e-06 164.333 4.5 138.833 13.5 115.5C22.8333 91.8333 35.8333 71.5 52.5 54.5C69.1667 37.1667 88.6667 23.8333 111 14.5C133.333 4.83332 157.833 -1.45435e-05 184.5 -1.45435e-05C210.833 -1.45435e-05 234.333 4.49999 255 13.5C276 22.5 293.667 34.3333 308 49C322.333 63.3333 332.667 79 339 96L286 121C278 101 265.167 84.8333 247.5 72.5C230.167 59.8333 209.167 53.5 184.5 53.5C159.833 53.5 138 59.3333 119 71C100 82.6667 85.1667 98.8333 74.5 119.5C64.1667 140.167 59 164.333 59 192C59 219.667 64.1667 244 74.5 265C85.1667 285.667 100 301.833 119 313.5C138 324.833 159.833 330.5 184.5 330.5C209.167 330.5 230.167 324.333 247.5 312C265.167 299.667 278 283.5 286 263.5L339 288.5C332.667 305.167 322.333 320.833 308 335.5C293.667 350.167 276 362 255 371C234.333 380 210.833 384.5 184.5 384.5ZM630.672 384.5C603.672 384.5 578.505 379.667 555.172 370C532.172 360.333 511.839 346.833 494.172 329.5C476.839 312.167 463.172 291.833 453.172 268.5C443.505 245.167 438.672 219.667 438.672 192C438.672 164.333 443.505 138.833 453.172 115.5C463.172 91.8333 476.839 71.5 494.172 54.5C511.505 37.1667 531.839 23.8333 555.172 14.5C578.505 4.83332 603.672 -1.45435e-05 630.672 -1.45435e-05C658.005 -1.45435e-05 683.172 4.83332 706.172 14.5C729.505 23.8333 749.839 37.1667 767.172 54.5C784.839 71.8333 798.505 92.1667 808.172 115.5C817.839 138.833 822.672 164.333 822.672 192C822.672 219.667 817.672 245.167 807.672 268.5C798.005 291.833 784.505 312.167 767.172 329.5C749.839 346.833 729.505 360.333 706.172 370C682.839 379.667 657.672 384.5 630.672 384.5ZM630.672 330.5C650.005 330.5 667.672 327 683.672 320C700.005 313 714.172 303.333 726.172 291C738.172 278.333 747.505 263.667 754.172 247C760.839 230 764.172 211.667 764.172 192C764.172 172.333 760.839 154.167 754.172 137.5C747.505 120.833 738.172 106.167 726.172 93.5C714.172 80.8333 700.005 71 683.672 64C667.672 57 650.005 53.5 630.672 53.5C611.339 53.5 593.505 57 577.172 64C561.172 71 547.172 80.8333 535.172 93.5C523.172 106.167 513.839 120.833 507.172 137.5C500.839 154.167 497.672 172.333 497.672 192C497.672 211.667 500.839 230 507.172 247C513.839 263.667 523.172 278.333 535.172 291C547.172 303.333 561.339 313 577.672 320C594.005 327 611.672 330.5 630.672 330.5ZM938.637 378.5V5.99997H986.137L1195.14 294.5L1172.64 298V5.99997H1231.14V378.5H1183.64L976.137 88L997.637 84V378.5H938.637ZM1358.27 378.5V5.99997H1405.77L1614.77 294.5L1592.27 298V5.99997H1650.77V378.5H1603.27L1395.77 88L1417.27 84V378.5H1358.27ZM1843.89 378.5V58.5H1744.89V5.99997H1999.89V58.5H1902.39V378.5H1843.89ZM2036.11 378.5L2167.11 5.99997H2240.11L2371.11 378.5H2308.11L2279.61 295H2128.11L2099.11 378.5H2036.11ZM2145.11 242.5H2261.61L2195.61 47.5H2212.11L2145.11 242.5Z" fill="black"/>
</svg>
