<svg width="512" height="512" viewBox="0 0 512 512" fill="none" xmlns="http://www.w3.org/2000/svg">
<g clip-path="url(#clip0_77_288)">
<g clip-path="url(#clip1_77_288)">
<path d="M1 0.400391H513V255.4H1V0.400391Z" fill="#27A0C9"/>
<path d="M373.5 0.400391H513V512.4H373.5V0.400391Z" fill="#27A0C9"/>
<path d="M1 309.4H204V512.4H1V309.4Z" fill="#27A0C9"/>
<path d="M247.121 309.4H336.5V512.4H247.121V309.4Z" fill="#27A0C9"/>
<path d="M336.5 512.4H247.121V309.4H336.5V512.4Z" fill="white" fill-opacity="0.2"/>
<path d="M513 512.4H373.5V255.4H257.996L512.996 0.400024H513V512.4Z" fill="white" fill-opacity="0.2"/>
<path d="M204 512.4H1.00391L1 512.396L203.996 309.4H204V512.4Z" fill="white" fill-opacity="0.2"/>
</g>
<path d="M46.0203 505.2C40.7537 505.2 35.8537 504.233 31.3203 502.3C26.8536 500.367 22.9536 497.7 19.6203 494.3C16.3536 490.833 13.787 486.767 11.9203 482.1C10.0536 477.433 9.12032 472.3 9.12032 466.7C9.12032 461.167 10.0203 456.067 11.8203 451.4C13.687 446.667 16.287 442.6 19.6203 439.2C22.9536 435.733 26.8536 433.067 31.3203 431.2C35.787 429.267 40.687 428.3 46.0203 428.3C51.287 428.3 55.987 429.2 60.1203 431C64.3203 432.8 67.8537 435.167 70.7203 438.1C73.587 440.967 75.6537 444.1 76.9203 447.5L66.3203 452.5C64.7203 448.5 62.1537 445.267 58.6203 442.8C55.1537 440.267 50.9537 439 46.0203 439C41.087 439 36.7203 440.167 32.9203 442.5C29.1203 444.833 26.1537 448.067 24.0203 452.2C21.9536 456.333 20.9203 461.167 20.9203 466.7C20.9203 472.233 21.9536 477.1 24.0203 481.3C26.1537 485.433 29.1203 488.667 32.9203 491C36.7203 493.267 41.087 494.4 46.0203 494.4C50.9537 494.4 55.1537 493.167 58.6203 490.7C62.1537 488.233 64.7203 485 66.3203 481L76.9203 486C75.6537 489.333 73.587 492.467 70.7203 495.4C67.8537 498.333 64.3203 500.7 60.1203 502.5C55.987 504.3 51.287 505.2 46.0203 505.2ZM140.435 505.2C135.035 505.2 130.001 504.233 125.335 502.3C120.735 500.367 116.668 497.667 113.135 494.2C109.668 490.733 106.935 486.667 104.935 482C103.001 477.333 102.035 472.233 102.035 466.7C102.035 461.167 103.001 456.067 104.935 451.4C106.935 446.667 109.668 442.6 113.135 439.2C116.601 435.733 120.668 433.067 125.335 431.2C130.001 429.267 135.035 428.3 140.435 428.3C145.901 428.3 150.935 429.267 155.535 431.2C160.201 433.067 164.268 435.733 167.735 439.2C171.268 442.667 174.001 446.733 175.935 451.4C177.868 456.067 178.835 461.167 178.835 466.7C178.835 472.233 177.835 477.333 175.835 482C173.901 486.667 171.201 490.733 167.735 494.2C164.268 497.667 160.201 500.367 155.535 502.3C150.868 504.233 145.835 505.2 140.435 505.2ZM140.435 494.4C144.301 494.4 147.835 493.7 151.035 492.3C154.301 490.9 157.135 488.967 159.535 486.5C161.935 483.967 163.801 481.033 165.135 477.7C166.468 474.3 167.135 470.633 167.135 466.7C167.135 462.767 166.468 459.133 165.135 455.8C163.801 452.467 161.935 449.533 159.535 447C157.135 444.467 154.301 442.5 151.035 441.1C147.835 439.7 144.301 439 140.435 439C136.568 439 133.001 439.7 129.735 441.1C126.535 442.5 123.735 444.467 121.335 447C118.935 449.533 117.068 452.467 115.735 455.8C114.468 459.133 113.835 462.767 113.835 466.7C113.835 470.633 114.468 474.3 115.735 477.7C117.068 481.033 118.935 483.967 121.335 486.5C123.735 488.967 126.568 490.9 129.835 492.3C133.101 493.7 136.635 494.4 140.435 494.4ZM207.208 504V429.5H216.708L258.508 487.2L254.008 487.9V429.5H265.708V504H256.208L214.708 445.9L219.008 445.1V504H207.208ZM296.313 504V429.5H305.813L347.613 487.2L343.113 487.9V429.5H354.813V504H345.313L303.813 445.9L308.113 445.1V504H296.313ZM398.619 504V440H378.819V429.5H429.819V440H410.319V504H398.619ZM442.241 504L468.441 429.5H483.041L509.241 504H496.641L490.941 487.3H460.641L454.841 504H442.241ZM464.041 476.8H487.341L474.141 437.8H477.441L464.041 476.8Z" fill="black"/>
</g>
<defs>
<clipPath id="clip0_77_288">
<rect width="512" height="512" fill="white"/>
</clipPath>
<clipPath id="clip1_77_288">
<rect width="512" height="390" fill="white" transform="translate(1 0.400391)"/>
</clipPath>
</defs>
</svg>
