<svg width="3368" height="512" viewBox="0 0 3368 512" fill="none" xmlns="http://www.w3.org/2000/svg">
<g clip-path="url(#clip0_94_167)">
<path d="M0 0H512V255H0V0Z" fill="#27A0C9"/>
<path d="M379 0H512V512H379V0Z" fill="#27A0C9"/>
<path d="M0 309H203V512H0V309Z" fill="#27A0C9"/>
<path d="M260 309H325V512H260V309Z" fill="#27A0C9"/>
<path d="M900.498 139.702L264.103 776.099L0 511.996L636.396 -124.4L900.498 139.702Z" fill="white" fill-opacity="0.1"/>
</g>
<path d="M974 446C947.667 446 923.167 441.167 900.5 431.5C878.167 421.833 858.667 408.5 842 391.5C825.667 374.167 812.833 353.833 803.5 330.5C794.167 307.167 789.5 281.5 789.5 253.5C789.5 225.833 794 200.333 803 177C812.333 153.333 825.333 133 842 116C858.667 98.6667 878.167 85.3333 900.5 76C922.833 66.3333 947.333 61.5 974 61.5C1000.33 61.5 1023.83 66 1044.5 75C1065.5 84 1083.17 95.8333 1097.5 110.5C1111.83 124.833 1122.17 140.5 1128.5 157.5L1075.5 182.5C1067.5 162.5 1054.67 146.333 1037 134C1019.67 121.333 998.667 115 974 115C949.333 115 927.5 120.833 908.5 132.5C889.5 144.167 874.667 160.333 864 181C853.667 201.667 848.5 225.833 848.5 253.5C848.5 281.167 853.667 305.5 864 326.5C874.667 347.167 889.5 363.333 908.5 375C927.5 386.333 949.333 392 974 392C998.667 392 1019.67 385.833 1037 373.5C1054.67 361.167 1067.5 345 1075.5 325L1128.5 350C1122.17 366.667 1111.83 382.333 1097.5 397C1083.17 411.667 1065.5 423.5 1044.5 432.5C1023.83 441.5 1000.33 446 974 446ZM1420.17 446C1393.17 446 1368.01 441.167 1344.67 431.5C1321.67 421.833 1301.34 408.333 1283.67 391C1266.34 373.667 1252.67 353.333 1242.67 330C1233.01 306.667 1228.17 281.167 1228.17 253.5C1228.17 225.833 1233.01 200.333 1242.67 177C1252.67 153.333 1266.34 133 1283.67 116C1301.01 98.6667 1321.34 85.3333 1344.67 76C1368.01 66.3333 1393.17 61.5 1420.17 61.5C1447.51 61.5 1472.67 66.3333 1495.67 76C1519.01 85.3333 1539.34 98.6667 1556.67 116C1574.34 133.333 1588.01 153.667 1597.67 177C1607.34 200.333 1612.17 225.833 1612.17 253.5C1612.17 281.167 1607.17 306.667 1597.17 330C1587.51 353.333 1574.01 373.667 1556.67 391C1539.34 408.333 1519.01 421.833 1495.67 431.5C1472.34 441.167 1447.17 446 1420.17 446ZM1420.17 392C1439.51 392 1457.17 388.5 1473.17 381.5C1489.51 374.5 1503.67 364.833 1515.67 352.5C1527.67 339.833 1537.01 325.167 1543.67 308.5C1550.34 291.5 1553.67 273.167 1553.67 253.5C1553.67 233.833 1550.34 215.667 1543.67 199C1537.01 182.333 1527.67 167.667 1515.67 155C1503.67 142.333 1489.51 132.5 1473.17 125.5C1457.17 118.5 1439.51 115 1420.17 115C1400.84 115 1383.01 118.5 1366.67 125.5C1350.67 132.5 1336.67 142.333 1324.67 155C1312.67 167.667 1303.34 182.333 1296.67 199C1290.34 215.667 1287.17 233.833 1287.17 253.5C1287.17 273.167 1290.34 291.5 1296.67 308.5C1303.34 325.167 1312.67 339.833 1324.67 352.5C1336.67 364.833 1350.84 374.5 1367.17 381.5C1383.51 388.5 1401.17 392 1420.17 392ZM1728.14 440V67.5H1775.64L1984.64 356L1962.14 359.5V67.5H2020.64V440H1973.14L1765.64 149.5L1787.14 145.5V440H1728.14ZM2147.77 440V67.5H2195.27L2404.27 356L2381.77 359.5V67.5H2440.27V440H2392.77L2185.27 149.5L2206.77 145.5V440H2147.77ZM2633.39 440V120H2534.39V67.5H2789.39V120H2691.89V440H2633.39ZM2825.61 440L2956.61 67.5H3029.61L3160.61 440H3097.61L3069.11 356.5H2917.61L2888.61 440H2825.61ZM2934.61 304H3051.11L2985.11 109H3001.61L2934.61 304Z" fill="black"/>
<defs>
<clipPath id="clip0_94_167">
<rect width="512" height="512" fill="white"/>
</clipPath>
</defs>
</svg>
